<?xml version="1.0" standalone="no"?>
<!DOCTYPE svg PUBLIC "-//W3C//DTD SVG 20010904//EN"
 "http://www.w3.org/TR/2001/REC-SVG-20010904/DTD/svg10.dtd">
<svg version="1.0" xmlns="http://www.w3.org/2000/svg"
 width="429.000000pt" height="429.000000pt" viewBox="0 0 429.000000 429.000000"
 preserveAspectRatio="xMidYMid meet">
<metadata>
Created by potrace 1.11, written by Peter Selinger 2001-2013
</metadata>
<g transform="translate(0.000000,429.000000) scale(0.100000,-0.100000)"
fill="#000000" stroke="none">
<path d="M1830 4283 c-285 -52 -485 -123 -712 -252 -215 -123 -358 -229 -508
-381 -508 -509 -717 -1247 -559 -1975 54 -250 166 -511 314 -730 337 -500 856
-834 1445 -931 120 -19 549 -19 673 1 582 94 1108 434 1444 935 246 365 374
814 360 1255 -11 339 -90 650 -239 935 -217 418 -552 746 -972 951 -146 72
-290 122 -471 166 -106 25 -122 26 -430 29 -176 1 -331 0 -345 -3z"/>
</g>
</svg>
